<?xml version="1.0" encoding="UTF-8"?>
<!DOCTYPE svg PUBLIC "-//W3C//DTD SVG 1.1//EN" "http://www.w3.org/Graphics/SVG/1.1/DTD/svg11.dtd">
<!-- Creator: CorelDRAW X5 -->
<svg xmlns="http://www.w3.org/2000/svg" xml:space="preserve" width="304.8mm" height="304.8mm" style="shape-rendering:geometricPrecision; text-rendering:geometricPrecision; image-rendering:optimizeQuality; fill-rule:evenodd; clip-rule:evenodd"
viewBox="0 0 305 305"
 xmlns:xlink="http://www.w3.org/1999/xlink">
 <defs>
  <style type="text/css">
   <![CDATA[
    .str0 {stroke:red;stroke-width:0.0762}
    .str1 {stroke:black;stroke-width:0.1764}
    .fil1 {fill:none}
    .fil0 {fill:blue}
    .fil2 {fill:black;fill-rule:nonzero}
   ]]>
  </style>
 </defs>
 <g id="Layer_x0020_1">
  <metadata id="CorelCorpID_0Corel-Layer"/>
  <path class="fil0" d="M74 37c5,0 10,2 14,5 0,0 1,0 1,1 2,1 2,2 3,2 1,0 1,-1 2,-1 2,-2 3,-3 6,-4 6,-3 15,-4 21,1 2,2 2,2 3,4 4,6 4,12 2,18 -1,2 -2,4 -3,6l-2 2c-2,2 -3,3 -4,5 0,0 -4,4 -4,5 0,0 -4,4 -4,5 0,1 0,0 -1,1l-4 4c-1,2 -3,3 -4,5 0,0 0,1 -1,1 0,0 -1,0 -1,1l-3 3c0,0 0,1 -1,1l-2 2c-1,-2 -24,-25 -29,-31 -3,-4 -5,-9 -6,-14 -1,-6 2,-13 7,-16 3,-2 6,-3 10,-3zm18 67l1 -1c0,0 0,0 0,0 0,0 0,0 0,0 0,0 0,0 0,0l1 -1c0,0 0,0 0,0 0,0 0,0 0,0l8 -8c0,0 0,0 0,0l0 -1c0,0 0,0 0,0l5 -5c0,0 0,0 0,0l3 -4c0,0 0,0 0,0l1 -1c0,0 1,-1 1,-1 0,0 0,0 0,0 0,0 0,0 0,0 0,0 0,0 0,0l3 -4c0,0 0,0 0,0 1,-1 1,-1 2,-2 0,0 0,-1 1,-1 1,-1 2,-2 3,-3 0,0 0,0 0,-1 2,-3 4,-6 5,-9 2,-6 2,-13 -2,-19 -6,-10 -19,-10 -28,-4 -3,2 -5,4 -5,4 -1,-2 -6,-5 -7,-6 -7,-4 -16,-4 -22,1 -3,2 -5,6 -6,9 -1,2 -1,6 -1,9 1,5 2,9 5,13 2,3 6,7 9,10 2,2 22,23 22,24z"/>
  <path class="fil1 str0" d="M62 39c6,-5 15,-5 22,-1 2,1 6,4 7,6 1,-1 2,-2 5,-4 9,-6 22,-6 28,4 4,6 4,13 2,19 -1,4 -3,7 -5,9 0,0 0,0 0,1 -1,1 -2,2 -3,3 0,0 -1,1 -1,1 -1,1 -1,1 -2,2l0 0 -3 4 0 0 0 0 0 0c0,0 -1,1 -1,1l-1 1 0 0 -3 4c0,0 0,0 0,0l-5 5 0 0 0 1 0 0 -8 8 0 0 0 0 -1 1c0,0 0,0 0,0l0 0 0 0 -1 1c-1,-1 -20,-22 -22,-24 -3,-3 -7,-7 -9,-10 -3,-4 -4,-8 -5,-13 0,-3 0,-6 1,-9 1,-4 3,-7 6,-9z"/>
  <g id="_32732104">
   <rect class="fil1 str0" x="20" y="139" width="127" height="25"/>
   <rect class="fil1 str0" x="74" y="151" width="19" height="2"/>
   <line class="fil1 str1" x1="122" y1="145" x2="122" y2= "158" />
   <line class="fil1 str1" x1="46" y1="145" x2="46" y2= "158" />
  </g>
  <path class="fil2" d="M109 57l0 -6 -1 0 -1 4c0,0 0,1 0,1 0,0 0,-1 0,-1l-1 -4 -1 0 0 6 1 0 0 -5 2 5 1 0 2 -5 0 5 1 0zm-7 2l0 -1c0,0 0,0 0,0 0,0 0,0 0,0 0,0 0,0 0,0 0,0 0,0 0,-1 0,0 0,0 0,0l2 -4 -1 0 -1 3c0,0 0,1 0,1 0,0 0,-1 0,-1l-1 -3 -1 0 2 4c0,0 0,1 0,1 0,0 0,0 0,1 0,0 0,0 1,0 0,0 0,0 0,0zm-7 -2l0 -6 -1 0 0 2 -3 0 0 -2 -1 0 0 6 1 0 0 -3 3 0 0 3 1 0zm-9 -1l-1 0c0,0 0,1 1,1 0,0 1,0 1,0 1,0 1,0 2,-1 0,0 1,-1 1,-2 0,-1 0,-1 -1,-2 0,0 -1,-1 -1,-1 -1,0 -1,0 -1,1 0,0 -1,1 -1,2 0,0 0,0 0,0l3 0c0,0 0,1 0,1 0,0 -1,0 -1,0 0,0 -1,0 -1,0 0,0 0,0 0,-1zm2 -1l-2 0c0,0 0,-1 0,-1 0,0 1,0 1,0 0,0 1,0 1,0 0,0 0,1 0,1zm-7 2c0,0 1,0 1,0 0,0 1,0 1,0 0,0 1,0 1,0 0,0 0,-1 0,-1 0,0 0,0 0,-1 0,0 0,0 0,0 0,0 0,0 -1,0 0,0 0,0 -1,0 -1,0 -1,0 -1,0 0,0 0,0 0,0 0,0 0,-1 0,-1 0,0 0,0 1,0 0,0 1,0 1,0 0,0 0,0 0,1l1 0c0,0 0,-1 0,-1 0,0 0,0 -1,0 0,0 -1,0 -1,0 0,0 -1,0 -1,0 0,0 0,0 -1,0 0,0 0,0 0,1 0,0 0,0 0,1l0 1c0,1 0,1 0,1 0,0 0,0 0,1l1 0c0,0 0,0 0,-1zm0 -2c0,0 1,0 1,0 0,0 1,0 1,0 0,0 0,0 0,0 0,0 0,0 0,0 0,0 0,0 0,0 0,0 0,0 -1,0 0,0 -1,0 -1,0 0,0 0,0 0,-1 0,0 0,0 0,-1l0 0zm-2 2l0 -4 -1 0 0 1c0,0 0,-1 0,-1 0,0 0,0 0,0 0,0 -1,0 -1,0l0 1c0,0 0,0 1,0 0,0 0,0 0,0 0,0 0,0 0,0 0,0 0,1 0,1l0 2 1 0zm-4 -1l0 1c0,0 0,0 1,0 0,0 0,0 1,0 0,0 0,0 0,0 0,0 0,0 0,-1l0 -3 1 0 0 -1 -1 0 0 -1 -1 0 0 2 -1 0 0 1 1 0 0 3c0,0 0,0 0,0 0,0 0,0 0,0 0,0 0,0 0,0 0,0 0,0 0,0zm26 10l0 -6 -2 0c0,0 -1,0 -1,0 0,0 0,0 -1,1 0,0 0,1 0,1 0,0 0,1 0,1 0,0 0,0 1,1 0,0 -1,0 -1,1 0,0 0,1 0,1 0,0 0,1 0,1 0,0 0,0 0,1 0,0 0,0 1,0 0,0 1,0 1,0l2 0zm-1 -4l-1 0c0,0 -1,0 -1,0 0,0 0,0 0,0 0,0 0,0 0,-1 0,0 0,0 0,-1 0,0 0,0 0,0 0,0 0,0 1,0l1 0 0 2zm0 3l-2 0c0,0 0,0 -1,0 0,0 0,0 0,0 0,0 0,0 0,0 0,0 0,0 0,-1 0,0 0,0 0,-1 0,0 0,0 0,0 0,0 1,0 1,0l1 0 0 2zm-8 -1l-1 0c0,0 0,1 1,1 0,0 1,0 1,0 1,0 1,0 2,-1 0,0 1,-1 1,-2 0,-1 0,-1 -1,-2 0,0 -1,-1 -1,-1 -1,0 -1,0 -1,1 0,0 -1,1 -1,2 0,0 0,0 0,0l3 0c0,0 0,1 0,1 0,0 -1,0 -1,0 0,0 -1,0 -1,0 0,0 0,0 0,-1zm2 -1l-2 0c0,0 0,-1 0,-1 0,0 1,0 1,0 0,0 1,0 1,0 0,0 0,1 0,1zm-7 2c0,0 1,0 1,0 0,0 1,0 1,0 0,0 1,0 1,0 0,0 0,-1 0,-1 0,0 0,0 0,-1 0,0 0,0 0,0 0,0 0,0 -1,0 0,0 0,0 -1,0 -1,0 -1,0 -1,0 0,0 0,0 0,0 0,0 0,-1 0,-1 0,0 0,0 1,0 0,0 1,0 1,0 0,0 0,0 0,1l1 0c0,0 0,-1 0,-1 0,0 0,0 -1,0 0,0 -1,0 -1,0 0,0 -1,0 -1,0 0,0 0,0 -1,0 0,0 0,0 0,1 0,0 0,0 0,1l0 1c0,1 0,1 0,1 0,0 0,0 0,1l1 0c0,0 0,0 0,-1zm0 -2c0,0 1,0 1,0 0,0 1,0 1,0 0,0 0,0 0,0 0,0 0,0 0,0 0,0 0,0 0,0 0,0 0,0 -1,0 0,0 -1,0 -1,0 0,0 0,0 0,-1 0,0 0,0 0,-1l0 0zm-4 2l0 1c0,0 0,0 1,0 0,0 0,0 1,0 0,0 0,0 0,0 0,0 0,0 0,-1l0 -3 1 0 0 -1 -1 0 0 -1 -1 0 0 2 -1 0 0 1 1 0 0 3c0,0 0,0 0,0 0,0 0,0 0,0 0,0 0,0 0,0 0,0 0,0 0,0zm0 -1l-1 0c0,0 0,1 0,1 0,0 0,0 -1,0 0,0 -1,0 -1,0 0,0 0,0 0,0 0,0 0,0 0,0 0,0 0,0 1,0 1,0 1,0 1,0 0,0 0,0 0,0 0,0 0,0 0,-1 0,0 0,0 0,-1 0,0 0,0 0,0 0,0 0,0 0,0 0,0 0,0 -1,0 0,0 -1,0 -1,0 0,0 0,0 -1,0 0,0 0,0 0,1l1 0c0,0 0,0 0,-1 0,0 0,0 1,0 0,0 1,0 1,0 0,0 0,0 0,0 0,0 0,0 0,0 0,0 0,0 0,0 0,0 0,0 -1,0 -1,0 -1,0 -1,0 0,0 0,0 0,0 0,0 0,0 0,1 0,0 0,0 0,1 0,0 0,0 1,1 0,0 1,0 1,0 1,0 1,0 1,0 0,0 0,-1 1,-1zm24 11l0 -6 -4 0 0 1 3 0 0 2 -3 0 0 1 3 0 0 3 1 0zm-5 -2c0,-1 0,-1 -1,-2 0,0 -1,0 -1,0 -1,0 -1,0 -1,1 0,0 -1,1 -1,2 0,1 0,1 0,1 0,0 0,1 1,1 0,0 1,0 1,0 1,0 1,0 1,-1 0,0 1,-1 1,-2zm-1 0c0,1 0,1 0,1 0,0 -1,0 -1,0 0,0 -1,0 -1,0 0,0 0,-1 0,-1 0,-1 0,-1 0,-1 0,0 1,0 1,0 0,0 1,0 1,0 0,0 0,1 0,1zm-4 2l0 -4 -1 0 0 1c0,0 0,-1 0,-1 0,0 0,0 0,0 0,0 -1,0 -1,0l0 1c0,0 0,0 1,0 0,0 0,0 0,0 0,0 0,0 0,0 0,0 0,1 0,1l0 2 1 0zm-7 0l0 -3 2 -3 -1 0 -1 2c0,0 0,1 -1,1 0,0 0,-1 -1,-1l-1 -2 -1 0 2 3 0 3 1 0zm-3 -2c0,-1 0,-1 -1,-2 0,0 -1,0 -1,0 -1,0 -1,0 -1,1 0,0 -1,1 -1,2 0,1 0,1 0,1 0,0 0,1 1,1 0,0 1,0 1,0 1,0 1,0 1,-1 0,0 1,-1 1,-2zm-1 0c0,1 0,1 0,1 0,0 -1,0 -1,0 0,0 -1,0 -1,0 0,0 0,-1 0,-1 0,-1 0,-1 0,-1 0,0 1,0 1,0 0,0 1,0 1,0 0,0 0,1 0,1zm-7 2l0 -1c0,0 1,1 1,1 0,0 1,0 1,0 0,0 0,0 0,0 0,0 0,0 0,-1 0,0 0,0 0,-1l0 -3 -1 0 0 2c0,0 0,1 0,1 0,0 0,0 0,0 0,0 0,0 -1,0 0,0 0,0 -1,0 0,0 0,0 0,0 0,0 0,0 0,-1l0 -2 -1 0 0 4 1 0zm-2 -2l0 -3 0 -1 -1 0 0 1 0 3 0 0zm0 2l0 -1 -1 0 0 1 1 0z"/>
 </g>
</svg>
